<svg width="1417" height="1417" viewBox="0 0 1417 1417" xmlns="http://www.w3.org/2000/svg">
  <rect x="0" y="0" width="1417" height="1417" fill="#1c1c1c"/>
  <path d="M709 220.5L541.5 708H56.5L468.5 983L321 1406.5L1095 561.5L914 352.5L709 220.5Z" fill="#fff"/>
  <path d="M941.5 901C941.5 1004.19 853.74 1089.5 746.5 1089.5C639.26 1089.5 551.5 1004.19 551.5 901C551.5 797.81 639.26 712.5 746.5 712.5C853.74 712.5 941.5 797.81 941.5 901Z" fill="#c0c0c0"/>
  <circle cx="708.5" cy="708.5" r="239.5" fill="#fff"/>
  <path d="M942.5 901C942.5 1002.72 853.72 1089 752 1089C650.28 1089 563 1002.72 563 901C563 799.28 650.28 713 752 713C853.72 713 942.5 799.28 942.5 901Z" stroke="#1c1c1c" stroke-width="15"/>
  <path d="M662.5 927.5C662.5 997.166 611.666 1051.5 546.5 1051.5C481.334 1051.5 430.5 997.166 430.5 927.5C430.5 857.834 481.334 803.5 546.5 803.5C611.666 803.5 662.5 857.834 662.5 927.5Z" fill="#1c1c1c"/>
  <rect x="1028.5" y="642.5" width="67" height="70" rx="12" fill="#1c1c1c"/>
  <path d="M1069 677.5L1071.5 680.5L1074 677.5L1071.5 674.5L1069 677.5Z" fill="#fff"/>
  <path d="M739.5 667.5L702.5 703L687.5 675.5L739.5 667.5Z" fill="#1c1c1c"/>
  <path d="M695.5 721.5L739.5 667.5L702.5 703L695.5 721.5Z" fill="#c0c0c0"/>
</svg>
